<svg xmlns="http://www.w3.org/2000/svg" xmlns:xlink="http://www.w3.org/1999/xlink" viewBox="0 0 24 24"><path d="M 0 12 C 6.627 12 12 6.627 12 0 L 12 0 L 12 0 C 12 6.627 17.373 12 24 12 L 24 12 L 24 12 C 17.373 12 12 17.373 12 24 L 12 24 L 12 24 C 12 17.373 6.627 12 0 12 L 0 12 Z" fill="hsl(0, 0%, 100%)"/>
<path xmlns="http://www.w3.org/2000/svg" d="M 0 12 C 6.627 12 12 6.627 12 0 L 12 0 L 12 0 C 12 6.627 17.373 12 24 12 L 24 12 L 24 12 C 17.373 12 12 17.373 12 24 L 12 24 L 12 24 C 12 17.373 6.627 12 0 12 L 0 12 Z" fill="hsl(0, 0%, 100%)"/>
</svg>